<svg width="250" height="250" viewBox="0 0 250 250" fill="none" xmlns="http://www.w3.org/2000/svg">
<circle cx="125" cy="125" r="125" fill="#3CBA92"/>
<circle cx="125" cy="125" r="109" fill="#298467"/>
<path d="M223 125C223 178.567 179.353 222 125.5 222C71.6474 222 28 178.567 28 125C28 71.4332 71.6474 28 125.5 28C179.353 28 223 71.4332 223 125Z" fill="#A0E6CF" stroke="black" stroke-width="2"/>
<rect x="76" y="118" width="90" height="15" fill="#4D4D4D"/>
<rect x="166" y="90" width="15" height="70" rx="7.5" fill="#4D4D4D"/>
<rect x="69" y="90" width="15" height="70" rx="7.5" fill="#4D4D4D"/>
<rect x="55" y="98" width="12" height="55" rx="6" fill="#4D4D4D"/>
<rect x="183" y="98" width="12" height="55" rx="6" fill="#4D4D4D"/>
<rect x="43" y="105" width="10" height="40" rx="5" fill="#4D4D4D"/>
<rect x="197" y="105" width="10" height="40" rx="5" fill="#4D4D4D"/>
</svg>
